<svg width="25" height="25" viewBox="0 0 25 25" fill="none" xmlns="http://www.w3.org/2000/svg">
    <path
            d="M12.5 2.5C6.98 2.5 2.5 6.98 2.5 12.5C2.5 16.92 5.37 20.66 9.35 21.98C9.85 22.07 10.03 21.76 10.03 21.49C10.03 21.24 10.02 20.41 10.01 19.53C7.25 20.13 6.67 18.35 6.67 18.35C6.22 17.2 5.56 16.89 5.56 16.89C4.65 16.27 5.63 16.28 5.63 16.28C6.64 16.35 7.18 17.32 7.18 17.32C8.08 18.86 9.55 18.42 10.13 18.16C10.22 17.51 10.48 17.07 10.77 16.82C8.57 16.57 6.25 15.72 6.25 11.95C6.25 10.88 6.63 10 7.25 9.31C7.15 9.06 6.81 8.04 7.35 6.66C7.35 6.66 8.19 6.39 10 7.61C10.79 7.39 11.64 7.28 12.5 7.28C13.36 7.28 14.21 7.39 15 7.61C16.81 6.39 17.65 6.66 17.65 6.66C18.19 8.04 17.85 9.06 17.75 9.31C18.37 10 18.75 10.88 18.75 11.95C18.75 15.73 16.42 16.57 14.22 16.82C14.59 17.14 14.92 17.76 14.92 18.71C14.92 20.06 14.91 21.15 14.91 21.49C14.91 21.76 15.09 22.08 15.59 21.98C19.57 20.66 22.44 16.92 22.44 12.5C22.44 6.98 17.96 2.5 12.44 2.5H12.5Z"
            fill="#6C3EB8"
    />
</svg>